<svg  xmlns="http://www.w3.org/2000/svg" width="54" height="54" viewBox="0 0 512.000000 512.000000">
        <g transform="translate(0.000000,512.000000) scale(0.100000,-0.100000)" fill="#1a1b1d" stroke="none">
            <path d="M2 3913 c1 -665 3 -1188 5 -1163 11 154 57 396 104 550 55 180 171
440 251 566 l33 51 89 -94 88 -93 -70 -142 c-150 -305 -221 -566 -242 -894
-13 -210 7 -452 55 -655 157 -670 606 -1236 1226 -1543 323 -161 657 -239
1019 -238 96 0 216 5 265 11 787 101 1451 570 1799 1272 161 323 238 655 238
1019 0 364 -77 697 -238 1019 -126 253 -263 440 -465 636 -193 187 -348 295
-594 415 -331 162 -636 232 -1005 232 -237 0 -434 -28 -654 -94 -54 -16 -99
-28 -101 -26 -1 2 -15 26 -31 53 -16 28 -48 74 -72 103 -24 30 -42 55 -40 56
6 6 194 65 268 85 98 26 281 59 395 70 56 5 -370 9 -1117 10 l-1208 1 2 -1207z
m1180 956 c269 -56 454 -327 408 -599 -35 -207 -203 -382 -409 -426 -90 -19
-144 -18 -237 6 -231 59 -394 270 -394 508 1 328 310 578 632 511z m1513
-1089 c264 -30 519 -150 707 -333 242 -235 369 -535 369 -870 0 -214 -40 -381
-135 -564 -209 -403 -621 -653 -1076 -653 -329 0 -627 125 -860 360 -234 236
-351 519 -351 855 -1 388 173 735 488 974 93 71 287 165 404 196 159 42 297
52 454 35z"/><path d="M2805 5109 c572 -55 1115 -308 1534 -714 215 -209 369 -419 506 -690
146 -287 234 -590 264 -905 5 -49 9 427 10 1118 l1 1202 -1202 -1 c-743 -1
-1169 -5 -1113 -10z"/><path d="M2 1203 l-2 -1203 1203 1 c690 1 1166 5 1117 10 -198 19 -451 76
-635 143 -124 46 -375 168 -475 232 -321 204 -619 502 -824 824 -82 128 -202
386 -255 545 -64 193 -107 405 -124 610 -2 22 -4 -501 -5 -1162z"/><path d="M5110 2354 c0 -58 -25 -232 -50 -344 -109 -489 -357 -932 -721 -1285
-420 -407 -962 -659 -1539 -714 -49 -5 427 -9 1118 -10 l1202 -1 0 1200 c0
660 -2 1200 -5 1200 -3 0 -5 -21 -5 -46z"/></g></svg>